<svg xmlns="http://www.w3.org/2000/svg" height="40px" viewBox="0 -960 960 960" width="40px" fill="#"><path d="M217.67-267q61.33-44 126-67.17 64.66-23.16 136.33-23.16 71.67 0 136.33 23.16Q681-311 743.67-267q40.33-52.67 57-104.17 16.66-51.5 16.66-108.83 0-142-97.66-239.67Q622-817.33 480-817.33t-239.67 97.66Q142.67-622 142.67-480q0 57.33 17 108.83t58 104.17ZM370.5-475.17q-44.5-44.5-44.5-109.5t44.5-109.5q44.5-44.5 109.5-44.5t109.5 44.5q44.5 44.5 44.5 109.5t-44.5 109.5q-44.5 44.5-109.5 44.5t-109.5-44.5ZM480-58.67q-86 0-162.67-33.5-76.66-33.5-134.16-91t-91-134.16Q58.67-394 58.67-480q0-86.33 33.5-162.83 33.5-76.5 91-134t134.16-91Q394-901.33 480-901.33q86.33 0 162.83 33.5 76.5 33.5 134 91t91 134q33.5 76.5 33.5 162.83 0 86-33.5 162.67-33.5 76.66-91 134.16t-134 91q-76.5 33.5-162.83 33.5Zm101-98.66q49.67-14.67 97.33-50.34-47.66-32.33-98-49Q530-273.33 480-273.33t-100.33 16.66q-50.34 16.67-97.34 49 47 35.67 96.67 50.34 49.67 14.66 101 14.66t101-14.66Zm-51-377.34q20-20 20-50t-20-50q-20-20-50-20t-50 20q-20 20-20 50t20 50q20 20 50 20t50-20Zm-50-50Zm0 376.34Z"/></svg>